<svg xmlns="http://www.w3.org/2000/svg" width="128" height="128" viewBox="0 0 128 128" fill="none">
  <rect width="128" height="128" rx="28" fill="#111827"/>
  <path d="M64 20c2.8 0 5 2.2 5 5v24.3l16.1-16.1c2-2 5.1-2 7.1 0s2 5.1 0 7.1L76.1 56.4H100c2.8 0 5 2.2 5 5s-2.2 5-5 5H76.1l16.1 16.1c2 2 2 5.1 0 7.1s-5.1 2-7.1 0L69 80.7V105c0 2.8-2.2 5-5 5s-5-2.2-5-5V80.7L42.9 96.8c-2 2-5.1 2-7.1 0s-2-5.1 0-7.1L51.9 66.4H28c-2.8 0-5-2.2-5-5s2.2-5 5-5h23.9L35.8 40.3c-2-2-2-5.1 0-7.1s5.1-2 7.1 0L59 49.3V25c0-2.8 2.2-5 5-5Z" fill="#22C55E"/>
  <path d="M64 40a24 24 0 1 0 0 48 24 24 0 0 0 0-48Zm0 10a14 14 0 1 1 0 28 14 14 0 0 1 0-28Z" fill="#A7F3D0"/>
</svg>
