<svg xmlns="http://www.w3.org/2000/svg" width="154.155" height="48.047" viewBox="0 0 154.155 48.047"><g transform="translate(17429.408 -98.989)"><path d="M.736,47.047h0a.735.735,0,0,1-.72-.886L2.668,33.511A23.155,23.155,0,0,1,.285,23.25a23.422,23.422,0,0,1,.472-4.686,23.123,23.123,0,0,1,3.5-8.314A23.318,23.318,0,0,1,14.485,1.827,23.134,23.134,0,0,1,18.85.472a23.477,23.477,0,0,1,9.371,0,23.123,23.123,0,0,1,8.314,3.5A23.318,23.318,0,0,1,44.958,14.2a23.133,23.133,0,0,1,1.355,4.364,23.476,23.476,0,0,1,0,9.371,23.123,23.123,0,0,1-3.5,8.314,23.319,23.319,0,0,1-10.229,8.424,23.133,23.133,0,0,1-4.364,1.355,23.447,23.447,0,0,1-10.161-.177,23.139,23.139,0,0,1-5.009-1.845L.913,47.025A.735.735,0,0,1,.736,47.047Zm13.026-8.2h0a18.569,18.569,0,1,0-6-5.745l-1.546,7.46,7.543-1.715Z" transform="translate(-17322.539 99.489)" fill="#fff" stroke="rgba(0,0,0,0)" stroke-miterlimit="10" stroke-width="1"/><path d="M1320.59,542.517l-1.005-2.029.643-.335-3.724-6.274-2.953,1.907a2.8,2.8,0,0,0-.832,3.866l.751,1.163a2.8,2.8,0,0,0,3.642.963l1.088-.567.991,2a.781.781,0,1,0,1.4-.693" transform="translate(-18620.658 -411.634)" fill="#fff"/><path d="M1354.053,479.275l-2.108-3.726s3.811-3.378,4.776-6.615c0,0,.738-1.944,1.654-.284l6.494,11.128s.894,1.54-.49,1.5c0,0-6.267-.334-8.651.944Z" transform="translate(-18655.355 -354.002)" fill="#fff"/><path d="M354.074,566.1h3.06l6.482,17.418h-3.7q-.473-1.376-1.168-3.632h-6.315q-.39,1.238-1.2,3.632h-3.644Zm1.558,4.705q-.779,2.174-2.142,6.109h4.228q-1.308-3.8-2.086-6.109" transform="translate(-17777 -439.813)" fill="#fff"/><path d="M491.374,581.6l-.5-1.321a3.26,3.26,0,0,1-1.447,1.183,4.817,4.817,0,0,1-2.059.468,5.454,5.454,0,0,1-4.534-1.953,6.457,6.457,0,0,1-1.308-4.183,7.192,7.192,0,0,1,2.114-5.558,5.432,5.432,0,0,1,3.811-1.458,5,5,0,0,1,3.227,1.046v-3.99l3.505-1.926V581.6Zm-.7-4.76v-3.495a2.677,2.677,0,0,0-.876-1.5,2.365,2.365,0,0,0-1.6-.591,2.681,2.681,0,0,0-2.253,1.1,4.806,4.806,0,0,0-.834,2.972q0,4.1,2.7,4.1a2.725,2.725,0,0,0,1.864-.784,2.942,2.942,0,0,0,1-1.8" transform="translate(-17894.133 -437.895)" fill="#fff"/><path d="M611.459,566.1q1.892,7.32,3.06,11.612l2.253-11.612h3.755l-4.367,17.418h-3l-3.616-12.162L605.9,583.519h-3.032L598.607,566.1h3.728l2.2,11.612q2-7.209,3.143-11.612Z" transform="translate(-17996.525 -439.814)" fill="#fff"/><path d="M789.528,565.368l3.505-1.9v6.742a3.56,3.56,0,0,1,1.836-1.458,4.475,4.475,0,0,1,1.725-.385,4.352,4.352,0,0,1,3.519,1.307,6.486,6.486,0,0,1,1.1,4.2v7.347h-3.505v-7.209q0-2.7-2.337-2.7a2.635,2.635,0,0,0-2.337.935v8.97h-3.505Z" transform="translate(-18163.496 -437.512)" fill="#fff"/><path d="M916.073,615.554h-2.81l-.278-1.183a5.842,5.842,0,0,1-3.728,1.513q-4.2,0-4.2-4.045a3.54,3.54,0,0,1,1.752-3.137,9.73,9.73,0,0,1,5.258-1.156h.584v-.055a2.1,2.1,0,0,0-.5-1.623,2.791,2.791,0,0,0-1.808-.44,5.458,5.458,0,0,0-3.366,1.156q-.5-.908-.946-1.789a10.933,10.933,0,0,1,2.768-1.637,8.343,8.343,0,0,1,2.824-.426q4.45,0,4.451,5.5Zm-3.533-5.888h-.417a5.182,5.182,0,0,0-2.559.55,1.644,1.644,0,0,0-.974,1.458q0,1.706,1.5,1.706a2.611,2.611,0,0,0,1.614-.523,2.054,2.054,0,0,0,.835-1.321Z" transform="translate(-18264.529 -471.849)" fill="#fff"/><path d="M1023.944,579.753h-3.616v6.191q0,1.376.918,1.376a4.467,4.467,0,0,0,2.086-.715l1.168,1.761a6.933,6.933,0,0,1-4.367,1.541q-3.338,0-3.338-3.632v-6.521h-1.753v-2.779h1.78v-2.229q1.391-.743,3.533-1.844v4.072h3.588Z" transform="translate(-18360.719 -445.761)" fill="#fff"/><path d="M1112.609,606.087a5.617,5.617,0,0,0-3.115-.881q-1.335,0-1.335,1.128,0,1.046,1.808,1.486a7.922,7.922,0,0,1,3.06,1.238,3.679,3.679,0,0,1,1.169,2.972,3.453,3.453,0,0,1-1.266,2.807,5.185,5.185,0,0,1-3.408,1.046,7.82,7.82,0,0,1-5.119-1.706l1.28-1.926a5.482,5.482,0,0,0,3.477,1.128,2.084,2.084,0,0,0,1.307-.385,1.221,1.221,0,0,0,.5-1.018q0-1.155-1.975-1.513-4.229-.8-4.228-4.073a3.23,3.23,0,0,1,1.294-2.614,4.989,4.989,0,0,1,3.241-1.046,7.264,7.264,0,0,1,4.59,1.513Z" transform="translate(-18438.869 -471.848)" fill="#fff"/><path d="M1084.419,399.162v15.564h-3.513V401Z" transform="translate(-18418.318 -293.817)" fill="#fff"/><path d="M978.615,434.632s4.375,2.368,4.032,7.021c-.007.1-.012.2-.013.3,0,.661-.217,3.745-4.019,3.694h-5.649l1.789-3.35h2.568c.256,0,.513.007.769.012.474.009,1.762-.158,1.007-2.354a4.644,4.644,0,0,0-2.278-2.406Z" transform="translate(-18323.92 -324.838)" fill="#fff"/><path d="M4.367,15.5h0a8.142,8.142,0,0,1-2.4-.4,7.9,7.9,0,0,1-1.027-.4V11.63a6.34,6.34,0,0,0,2.877.941,1.857,1.857,0,0,0,1.8-1.1,2.96,2.96,0,0,0,.264-1.1c-.131,0-.261.007-.386.007h0A5.7,5.7,0,0,1,1.262,8.9,4.24,4.24,0,0,1,.52,7.875a4.716,4.716,0,0,1-.373-.982A4.267,4.267,0,0,1,0,5.867,6.083,6.083,0,0,1,1.435,1.348,4.666,4.666,0,0,1,4.651.017c.106,0,.213-.006.305-.01S5.142,0,5.232,0A3.876,3.876,0,0,1,7.539.687,4.047,4.047,0,0,1,8.77,2.157a4.971,4.971,0,0,1,.421,1.162A5.527,5.527,0,0,1,9.328,4.55v5.487a6.2,6.2,0,0,1-.764,3.021,4.64,4.64,0,0,1-1.941,1.936A4.931,4.931,0,0,1,4.367,15.5ZM4.814,3.043A1.435,1.435,0,0,0,3.38,4.476V6.095A1.378,1.378,0,0,0,4.757,7.471H5.41a.639.639,0,0,0,.639-.639V4.267A1.226,1.226,0,0,0,4.824,3.043Z" transform="translate(-17368.5 109.775)" fill="#fff" stroke="rgba(0,0,0,0)" stroke-miterlimit="10" stroke-width="1"/><path d="M780.15,399.162v15.465h-3.378V401.014Z" transform="translate(-18152.34 -293.817)" fill="#fff"/><path d="M467.092,436.669v5.983a4.465,4.465,0,0,1-4.265,4.777s-6.331.6-7.239-1.051c0,0-.653,1.066-3.457,1.072-.476,0-.953.007-1.429.014-.935.015-2.586-.088-3.375-.916,0,0-1.209,1.533-6.495.738A6.618,6.618,0,0,1,434.5,452c-5.075.043-6.31-3.96-6.31-3.96a7.18,7.18,0,0,1,.369-5.805l3.229-.667s-1.98,3.875.149,6.146,4.684.2,4.684.2a2.522,2.522,0,0,0,.873-2.342c-.128-1.682,0-5.94,0-5.94l3.385-1.852v5.273a1.285,1.285,0,0,0,1.285,1.285h2.157a1.285,1.285,0,0,0,1.285-1.285V439.1l3.343-1.895v5.749a1.384,1.384,0,0,0,1.384,1.384h2.023a1.384,1.384,0,0,0,1.384-1.384v-4.436l3.378-1.845v6a1.661,1.661,0,0,0,1.661,1.661h3.307a1.661,1.661,0,0,0,1.661-1.661V438.5Z" transform="translate(-17847.109 -326.62)" fill="#fff"/><path d="M718.177,392.55a1.817,1.817,0,1,1-1.817-1.817,1.817,1.817,0,0,1,1.817,1.817" transform="translate(-18097.918 -286.446)" fill="#fff"/><path d="M685.768,392.55a1.817,1.817,0,1,1-1.817-1.817,1.817,1.817,0,0,1,1.817,1.817" transform="translate(-18069.572 -286.446)" fill="#fff"/></g></svg>